<svg width="40" height="50" viewBox="0 0 40 50" fill="none" xmlns="http://www.w3.org/2000/svg">
<path d="M20.4651 31.3804C18.9226 31.3804 18.0226 32.8479 18.0226 34.8129C18.0226 36.7904 18.9501 38.1879 20.4801 38.1879C22.0226 38.1879 22.9076 36.7179 22.9076 34.7529C22.9076 32.9379 22.0376 31.3804 20.4651 31.3804V31.3804Z" fill="black"/>
<path d="M25 0H5C3.67392 0 2.40215 0.526784 1.46447 1.46447C0.526784 2.40215 0 3.67392 0 5V45C0 46.3261 0.526784 47.5979 1.46447 48.5355C2.40215 49.4732 3.67392 50 5 50H35C36.3261 50 37.5979 49.4732 38.5355 48.5355C39.4732 47.5979 40 46.3261 40 45V15L25 0ZM12.8875 38.635C11.8225 39.52 10.205 39.9375 8.2275 39.9375C7.04 39.9375 6.2025 39.8625 5.6325 39.7875V29.86C6.65493 29.7128 7.68706 29.6434 8.72 29.6525C10.64 29.6525 11.885 29.9975 12.8575 30.7325C13.9075 31.5125 14.5675 32.7575 14.5675 34.5375C14.5675 36.475 13.8625 37.81 12.8875 38.635V38.635ZM20.3625 40C17.3625 40 15.61 37.735 15.61 34.855C15.61 31.8275 17.5425 29.565 20.5275 29.565C23.63 29.565 25.325 31.8875 25.325 34.6775C25.3225 37.99 23.3125 40 20.3625 40V40ZM32 38.095C32.6875 38.095 33.4525 37.9425 33.905 37.765L34.25 39.5475C33.83 39.7575 32.885 39.9825 31.6575 39.9825C28.165 39.9825 26.365 37.81 26.365 34.93C26.365 31.4825 28.8225 29.565 31.8825 29.565C33.0675 29.565 33.965 29.805 34.37 30.015L33.905 31.83C33.2963 31.5785 32.6436 31.451 31.985 31.455C30.17 31.455 28.76 32.55 28.76 34.8C28.76 36.8225 29.96 38.095 32 38.095V38.095ZM25 17.5H22.5V5L35 17.5H25Z" fill="black"/>
<path d="M8.96011 31.4077C8.45261 31.4077 8.12261 31.4527 7.92761 31.4977V38.1102C8.12261 38.1552 8.43761 38.1552 8.72011 38.1552C10.7901 38.1702 12.1376 37.0327 12.1376 34.6177C12.1526 32.5177 10.9251 31.4077 8.96011 31.4077V31.4077Z" fill="black"/>
</svg>
