<svg width="40" height="50" viewBox="0 0 40 50" fill="none" xmlns="http://www.w3.org/2000/svg">
<path d="M25 0H5C3.67392 0 2.40215 0.526784 1.46447 1.46447C0.526784 2.40215 0 3.67392 0 5V45C0 46.3261 0.526784 47.5979 1.46447 48.5355C2.40215 49.4732 3.67392 50 5 50H35C36.3261 50 37.5979 49.4732 38.5355 48.5355C39.4732 47.5979 40 46.3261 40 45V15L25 0ZM13.0975 36.115C13.0975 38.995 11.72 40 9.5025 40C8.9775 40 8.2875 39.91 7.84 39.7575L8.0925 37.915C8.41 38.02 8.815 38.095 9.265 38.095C10.225 38.095 10.8225 37.66 10.8225 36.085V29.7275H13.1V36.115H13.0975ZM21.3325 35.2025C20.55 35.935 19.4 36.2675 18.05 36.2675C17.75 36.2675 17.48 36.25 17.27 36.22V39.8325H15.005V29.8625C16.0275 29.7086 17.061 29.6392 18.095 29.655C19.5025 29.655 20.5075 29.9225 21.18 30.4625C21.8275 30.9725 22.2625 31.8125 22.2625 32.8025C22.2625 33.7925 21.93 34.6325 21.3325 35.2025ZM32.16 39.37C31.46 39.61 30.1225 39.94 28.7875 39.94C26.945 39.94 25.61 39.475 24.68 38.575C23.7525 37.705 23.2425 36.3875 23.255 34.9025C23.2725 31.5425 25.7125 29.625 29.0275 29.625C30.33 29.625 31.3375 29.8825 31.83 30.12L31.3525 31.9475C30.7975 31.7075 30.11 31.5125 29 31.5125C27.0975 31.5125 25.655 32.5925 25.655 34.7825C25.655 36.865 26.9625 38.095 28.8325 38.095C29.36 38.095 29.7775 38.035 29.96 37.9425V35.8275H28.4V34.045H32.16V39.37V39.37ZM25 17.5H22.5V5L35 17.5H25Z" fill="black"/>
<path d="M18.2125 31.3804C17.7475 31.3804 17.4325 31.4254 17.27 31.4704V34.4529C17.4625 34.4979 17.705 34.5104 18.0375 34.5104C19.2475 34.5104 19.9975 33.8954 19.9975 32.8629C19.9975 31.9329 19.355 31.3804 18.2125 31.3804V31.3804Z" fill="black"/>
</svg>
