<svg width="41" height="50" viewBox="0 0 41 50" fill="none" xmlns="http://www.w3.org/2000/svg">
<path d="M11.3342 31.7C10.8742 31.7 10.5642 31.7449 10.4042 31.7899V34.7349C10.5942 34.7799 10.8317 34.7924 11.1592 34.7924C12.3567 34.7924 13.0942 34.1874 13.0942 33.1649C13.0942 32.2499 12.4592 31.7 11.3342 31.7V31.7ZM20.0517 31.73C19.5517 31.73 19.2267 31.7749 19.0342 31.8199V38.3449C19.2267 38.3899 19.5367 38.39 19.8167 38.39C21.8592 38.405 23.1892 37.2799 23.1892 34.8999C23.2042 32.825 21.9917 31.73 20.0517 31.73V31.73Z" fill="black"/>
<path d="M25.6666 0H5.66663C4.34054 0 3.06877 0.526784 2.13109 1.46447C1.19341 2.40215 0.666626 3.67392 0.666626 5V45C0.666626 46.3261 1.19341 47.5979 2.13109 48.5355C3.06877 49.4732 4.34054 50 5.66663 50H35.6666C36.9927 50 38.2645 49.4732 39.2022 48.5355C40.1398 47.5979 40.6666 46.3261 40.6666 45V15L25.6666 0ZM14.4116 35.475C13.6391 36.2 12.4991 36.525 11.1716 36.525C10.9142 36.5278 10.6569 36.5128 10.4016 36.48V40.045H8.16663V30.205C9.17526 30.0545 10.1944 29.986 11.2141 30C12.6066 30 13.5966 30.265 14.2641 30.7975C14.8991 31.3025 15.3291 32.13 15.3291 33.105C15.3266 34.085 15.0016 34.9125 14.4116 35.475V35.475ZM23.9291 38.8625C22.8791 39.735 21.2816 40.15 19.3291 40.15C18.1591 40.15 17.3316 40.075 16.7691 40V30.2075C17.7781 30.0602 18.797 29.9909 19.8166 30C21.7091 30 22.9391 30.34 23.8991 31.065C24.9366 31.835 25.5866 33.0625 25.5866 34.825C25.5866 36.7325 24.8891 38.05 23.9291 38.8625V38.8625ZM33.1666 31.925H29.3366V34.2025H32.9166V36.0375H29.3366V40.0475H27.0716V30.075H33.1666V31.925ZM25.6666 17.5H23.1666V5L35.6666 17.5H25.6666Z" fill="black"/>
</svg>
