<svg width="40" height="50" viewBox="0 0 40 50" fill="none" xmlns="http://www.w3.org/2000/svg">
<path d="M9.45507 31.4399C8.99007 31.4399 8.67507 31.4849 8.51257 31.5299V34.5124C8.70507 34.5574 8.94757 34.5699 9.27757 34.5699C10.4901 34.5699 11.2401 33.9549 11.2401 32.9224C11.2401 31.9949 10.5951 31.4399 9.45507 31.4399V31.4399Z" fill="black"/>
<path d="M25 0H5C3.67392 0 2.40215 0.526784 1.46447 1.46447C0.526784 2.40215 0 3.67392 0 5V45C0 46.3261 0.526784 47.5979 1.46447 48.5355C2.40215 49.4732 3.67392 50 5 50H35C36.3261 50 37.5979 49.4732 38.5355 48.5355C39.4732 47.5979 40 46.3261 40 45V15L25 0ZM12.575 35.2625C11.7925 35.995 10.64 36.3275 9.2925 36.3275C8.9925 36.3275 8.72 36.31 8.5125 36.28V39.8925H6.2475V29.925C7.2692 29.7709 8.30188 29.7015 9.335 29.7175C10.7425 29.7175 11.75 29.985 12.4225 30.525C13.0675 31.035 13.5025 31.875 13.5025 32.865C13.5025 33.855 13.175 34.6925 12.575 35.2625ZM23.33 39.895H20.93L18.7725 35.995C18.1725 34.915 17.5125 33.6125 17.02 32.4275L16.9725 32.4425C17.0325 33.7775 17.0625 35.2025 17.0625 36.85V39.895H14.9625V29.79H17.63L19.73 33.4925C20.33 34.5575 20.9275 35.8175 21.3775 36.955H21.425C21.2797 35.5557 21.2146 34.1492 21.23 32.7425V29.7875H23.33V39.895V39.895ZM33.7525 39.43C32.6638 39.7903 31.5266 39.9825 30.38 40C28.5375 40 27.2025 39.535 26.27 38.635C25.3425 37.765 24.8325 36.4475 24.8475 34.9625C24.8625 31.6025 27.305 29.685 30.62 29.685C31.9225 29.685 32.93 29.9425 33.4225 30.18L32.945 32.0075C32.39 31.7675 31.7 31.5725 30.5925 31.5725C28.6875 31.5725 27.2475 32.6525 27.2475 34.8425C27.2475 36.925 28.5525 38.155 30.425 38.155C30.95 38.155 31.37 38.095 31.55 38.0025V35.8875H29.99V34.105H33.7525V39.43V39.43ZM25 17.5H22.5V5L35 17.5H25Z" fill="black"/>
</svg>
