<svg width="40" height="50" viewBox="0 0 40 50" fill="none" xmlns="http://www.w3.org/2000/svg">
<path d="M21.5 25.75H16.5V33.75H21.75C23.25 33.75 24 33.25 24.75 32.5C25.5 31.75 25.75 31 25.75 29.75C25.75 28.5 25.5 27.75 24.75 27C24 26.25 23 25.75 21.5 25.75V25.75ZM25 0H5C3.67392 0 2.40215 0.526784 1.46447 1.46447C0.526784 2.40215 0 3.67392 0 5V45C0 46.3261 0.526784 47.5979 1.46447 48.5355C2.40215 49.4732 3.67392 50 5 50H35C36.3261 50 37.5979 49.4732 38.5355 48.5355C39.4732 47.5979 40 46.3261 40 45V15L25 0ZM28 35C26.5 36.25 25.25 36.75 22 36.75H16.5V45H12.5V22.5H22C25.25 22.5 26.75 23.25 28 24.5C29.5 26 30 27.5 30 29.75C30 32 29.5 33.75 28 35ZM22.5 17.5V3.75L36.25 17.5H22.5Z" fill="black"/>
</svg>
