<svg width="40" height="51" viewBox="0 0 40 51" fill="none" xmlns="http://www.w3.org/2000/svg">
<path d="M39.4659 12.767C39.8068 13.108 40 13.5682 40 14.0511V49.0909C40 50.0966 39.1875 50.9091 38.1818 50.9091H1.81818C0.8125 50.9091 0 50.0966 0 49.0909V1.81818C0 0.8125 0.8125 0 1.81818 0H25.9489C26.4318 0 26.8977 0.193182 27.2386 0.534091L39.4659 12.767V12.767ZM35.8068 14.8864L25.1136 4.19318V14.8864H35.8068ZM9.09091 23.75C8.97036 23.75 8.85474 23.7979 8.7695 23.8831C8.68425 23.9684 8.63636 24.084 8.63636 24.2045V26.9318C8.63636 27.0524 8.68425 27.168 8.7695 27.2532C8.85474 27.3385 8.97036 27.3864 9.09091 27.3864H30.9091C31.0296 27.3864 31.1453 27.3385 31.2305 27.2532C31.3157 27.168 31.3636 27.0524 31.3636 26.9318V24.2045C31.3636 24.084 31.3157 23.9684 31.2305 23.8831C31.1453 23.7979 31.0296 23.75 30.9091 23.75H9.09091ZM9.09091 31.4773C8.97036 31.4773 8.85474 31.5252 8.7695 31.6104C8.68425 31.6957 8.63636 31.8113 8.63636 31.9318V34.6591C8.63636 34.7796 8.68425 34.8953 8.7695 34.9805C8.85474 35.0657 8.97036 35.1136 9.09091 35.1136H19.5455C19.666 35.1136 19.7816 35.0657 19.8669 34.9805C19.9521 34.8953 20 34.7796 20 34.6591V31.9318C20 31.8113 19.9521 31.6957 19.8669 31.6104C19.7816 31.5252 19.666 31.4773 19.5455 31.4773H9.09091Z" fill="black"/>
</svg>
