<svg width="40" height="50" viewBox="0 0 40 50" fill="none" xmlns="http://www.w3.org/2000/svg">
<path d="M25 0H5C3.67392 0 2.40215 0.526784 1.46447 1.46447C0.526784 2.40215 0 3.67392 0 5V45C0 46.3261 0.526784 47.5979 1.46447 48.5355C2.40215 49.4732 3.67392 50 5 50H35C36.3261 50 37.5979 49.4732 38.5355 48.5355C39.4732 47.5979 40 46.3261 40 45V15L25 0ZM29.5 45H25L20 36.5L15 45H10.5L17.75 33.75L10.5 22.5H15L20 31L25 22.5H29.5L22.25 33.75L29.5 45ZM22.5 17.5V3.75L36.25 17.5H22.5Z" fill="black"/>
</svg>
